<?xml version="1.0" encoding="UTF-8" standalone="no"?>
<svg
   width="512"
   height="512"
   viewBox="0 0 512 512"
   fill="none"
   version="1.1"
   id="svg5"
   sodipodi:docname="logo-freecad_512x512.svg"
   inkscape:version="1.1.2 (0a00cf5339, 2022-02-04)"
   xmlns:inkscape="http://www.inkscape.org/namespaces/inkscape"
   xmlns:sodipodi="http://sodipodi.sourceforge.net/DTD/sodipodi-0.dtd"
   xmlns="http://www.w3.org/2000/svg"
   xmlns:svg="http://www.w3.org/2000/svg"
   xmlns:rdf="http://www.w3.org/1999/02/22-rdf-syntax-ns#"
   xmlns:cc="http://creativecommons.org/ns#"
   xmlns:dc="http://purl.org/dc/elements/1.1/">
  <sodipodi:namedview
     id="namedview1"
     pagecolor="#ffffff"
     bordercolor="#666666"
     borderopacity="1.0"
     inkscape:showpageshadow="2"
     inkscape:pageopacity="0.0"
     inkscape:pagecheckerboard="0"
     inkscape:deskcolor="#d1d1d1"
     inkscape:zoom="1.8032248"
     inkscape:cx="-77.915965"
     inkscape:cy="285.32216"
     inkscape:window-width="3840"
     inkscape:window-height="2059"
     inkscape:window-x="0"
     inkscape:window-y="0"
     inkscape:window-maximized="1"
     inkscape:current-layer="svg5"
     inkscape:pageshadow="2"
     showgrid="false" />
  <title
     id="title1">FreeCAD-wordmark-light</title>
  <defs
     id="defs5" />
  <metadata
     id="metadata1">
    <rdf:RDF>
      <cc:Work
         rdf:about="">
        <dc:title>FreeCAD-wordmark-light</dc:title>
        <dc:date>2024-06-01</dc:date>
        <dc:creator>
          <cc:Agent>
            <dc:title>Sebastian Tabares Amaya (sytabaresa), Max Wilfinger (maxwxyz)</dc:title>
          </cc:Agent>
        </dc:creator>
        <dc:publisher>
          <cc:Agent>
            <dc:title>The FreeCAD project association AISBL (FPA)</dc:title>
          </cc:Agent>
        </dc:publisher>
      </cc:Work>
    </rdf:RDF>
  </metadata>
  <g
     id="g2"
     style="stroke:none"
     transform="matrix(0.89251019,0,0,0.89251019,80.690733,42.989139)">
    <path
       d="m 400,80 -80,80 H 160 v 60 h 80 v 80 h -80 v 100 l -80,80 h 81.0076 c 6.0652,0 11.4378,-3.9054 13.3118,-9.6738 l 14.4798,-44.5656 c 1.384,-4.2618 4.7298,-7.5966 8.9916,-8.9814 l 11.1312,-3.6172 c 4.262,-1.386 8.9314,-0.65 12.5572,1.984 l 37.8994,27.5434 c 4.9066,3.5646 11.5574,3.5646 16.464,0 l 33.972,-24.691 c 4.9072,-3.5648 6.9592,-9.8788 5.085,-15.6474 l -14.4798,-44.5658 c -1.386,-4.262 -0.64,-8.9314 1.994,-12.5572 l 6.8834,-9.4672 c 2.6338,-3.6254 6.8358,-5.777 11.317,-5.7774 l 46.86,0.0102 c 6.0656,2e-4 11.4378,-3.9154 13.3118,-9.684 l 12.9812,-39.9354 c 1.874,-5.7684 -0.18,-12.093 -5.085,-15.658 L 350.7724,237.173 c -3.6256,-2.6342 -5.767,-6.8356 -5.767,-11.3172 V 214.146 c 4e-4,-4.4814 2.1412,-8.6936 5.767,-11.3274 l 43.4598,-31.5742 C 397.8584,168.6106 400,164.3988 400,159.9174 Z"
       style="fill:#418fde;fill-opacity:1;fill-rule:evenodd;stroke:none;stroke-width:2.64566;stroke-linecap:square"
       id="path8-4-4" />
    <path
       id="path7-7-2"
       style="display:inline;fill:#ff585d;fill-opacity:1;fill-rule:evenodd;stroke:none;stroke-width:2.64566;stroke-linecap:square"
       d="m 320,0 -80,80 h 80 v 80 L 400,80 V 0 Z M 80,320 0,400 v 80 h 80 l 80,-80 H 80 Z" />
    <path
       d="M 80,0 0,80 V 400 L 80,320 V 80 H 240 L 320,0 Z"
       style="fill:#cb333b;fill-rule:evenodd;stroke:none;stroke-width:2.64566;stroke-linecap:square"
       id="path3-1-7" />
    <path
       d="m 80,400 h 80 V 300 h 80 V 220 H 160 V 160 H 320 V 80 H 80 Z"
       style="fill:#ffffff;fill-opacity:1;fill-rule:evenodd;stroke:none;stroke-width:2.64566;stroke-linecap:square"
       id="path9-4-0" />
  </g>
</svg>
